<svg width="193" height="21" viewBox="0 0 193 21" fill="none" xmlns="http://www.w3.org/2000/svg">
<path d="M12.1811 0L0 21H7.56078L9.33143 17.8805H23.6731L25.4438 21H33.1542L20.9706 0H12.1811ZM62.3428 0H53.4331L45.6026 7.41119H42.0319V0H35.1921V21H42.0319V13.4098H46.4707L54.9021 21H64.2336L51.6331 9.74834L62.3428 0ZM90.6951 10.0206C91.8943 9.36086 93.2162 8.12974 93.2162 5.61112C93.2162 2.16057 90.727 0 86.5848 0H66.0949V21H87.2764C91.4774 21 94.4767 19.0209 94.4767 15.151C94.4767 11.8206 92.2573 10.3811 90.6975 10.0206M107.374 0L95.1928 21H102.754L104.524 17.8805H118.866L120.637 21H128.347L116.166 0H107.376H107.374ZM152.197 14.6409L140.285 0H130.385V21H137.105V6.3591L149.016 21H158.916V0H152.197V14.6409ZM179.737 9.75079L190.449 0H181.54L173.709 7.41119H170.139V0H163.299V21H170.139V13.4098H174.58L183.011 21H192.343L179.742 9.74834L179.737 9.75079ZM72.8121 5.03971H84.4218C85.6824 5.03971 86.553 5.49095 86.553 6.59944C86.553 7.70793 85.6824 8.10032 84.4218 8.10032H72.8121V5.03971ZM12.1811 12.8997L16.5023 5.28004L20.8529 12.8997H12.1811ZM107.376 12.8997L111.698 5.28004L116.048 12.8997H107.379H107.376ZM85.236 15.9603H72.8146V12.6005H85.236C86.5848 12.6005 87.5756 13.0812 87.5756 14.2804C87.5756 15.4796 86.5848 15.9603 85.236 15.9603Z" fill="white"/>
</svg>
