<svg width="32" height="32" viewBox="0 0 32 32" fill="none" xmlns="http://www.w3.org/2000/svg">
<path fill-rule="evenodd" clip-rule="evenodd" d="M0 16C0 7.16344 7.16344 0 16 0C24.8366 0 32 7.16344 32 16C32 24.8366 24.8366 32 16 32C7.16344 32 0 24.8366 0 16Z" fill="white"/>
<path fill-rule="evenodd" clip-rule="evenodd" d="M7 8H13.9889L25.4704 23.5H18.4815L7 8ZM10.9704 10L19.4889 21.5H21.5L12.9815 10H10.9704Z" fill="#DC0005"/>
<path d="M20.9852 8H23.4852L17.6603 14.665L16.3378 13.1638L20.9852 8Z" fill="#DC0005"/>
<path d="M10 23.5H7.5L14.2352 15.5L15.5 17.1368L10 23.5Z" fill="#DC0005"/>
</svg>
